<svg xmlns="http://www.w3.org/2000/svg" xmlns:xlink="http://www.w3.org/1999/xlink" width="375" height="261" viewBox="0 0 375 261" fill="none"><defs><path id="path_0"
        transform="translate(0 0) rotate(0 187.5 130.5)"
        d="M0,261L375,261L375,0L0,0L0,261Z" /><linearGradient id="linear_0" x1="12.061%" y1="78.904%" x2="53.783%" y2="40.694%" gradientUnits="objectBoundingBox"><stop offset="0" stop-color="#4E7FE5" stop-opacity="1" /><stop offset="1" stop-color="#6E8BFF" stop-opacity="0.1" /></linearGradient></defs><g opacity="0.2" transform="translate(0 7.105427357601002e-15)  rotate(-180 187.5 130.5)"><mask id="mask-0" fill="white"><use xlink:href="#path_0"></use></mask><g mask="url(#mask-0)"><path id="矩形 1" fill-rule="evenodd" style="fill:#C4C4C4" transform="translate(0 0)  rotate(0 187.5 130.5)" opacity="0" d="M0,261L375,261L375,0L0,0L0,261Z " /></g><g mask="url(#mask-0)"><path id="路径 6" fill-rule="evenodd" fill="url(#linear_0)" transform="translate(-51.325522698985424 18.747798079941496)  rotate(-170.3155971321541 273.44234276397276 157.95421174461208)" opacity="1" d="M252.5,188.86C329,241.26 418.5,330.26 498.5,313.94C578.5,297.63 540.75,97.41 516,13.35L203,0L34,13.35L0,136.45L34,206.16C103.31,167.92 176,136.45 252.5,188.86Z " /></g></g></svg>